<svg width="11" height="17" viewBox="0 0 11 17" fill="none" xmlns="http://www.w3.org/2000/svg">
<path d="M5.5 15.1111C5.90058 15.1111 6.85575 13.9901 7.71008 11.9831C8.57725 9.94878 9.16667 7.43655 9.16667 6.00006C9.16667 3.706 7.50108 1.88889 5.5 1.88889C3.49892 1.88889 1.83333 3.706 1.83333 6.00006C1.83333 7.43561 2.42275 9.94878 3.28992 11.9831C4.14333 13.9901 5.09942 15.1111 5.5 15.1111ZM5.5 17C2.46217 17 0 9.31411 0 6.00006C0 2.686 2.46217 0 5.5 0C8.53783 0 11 2.686 11 6.00006C11 9.31411 8.53783 17 5.5 17ZM5.5 7.55556C5.98623 7.55556 6.45255 7.35655 6.79636 7.00231C7.14018 6.64808 7.33333 6.16763 7.33333 5.66667C7.33333 5.1657 7.14018 4.68526 6.79636 4.33102C6.45255 3.97678 5.98623 3.77778 5.5 3.77778C5.01377 3.77778 4.54745 3.97678 4.20364 4.33102C3.85982 4.68526 3.66667 5.1657 3.66667 5.66667C3.66667 6.16763 3.85982 6.64808 4.20364 7.00231C4.54745 7.35655 5.01377 7.55556 5.5 7.55556Z" fill="white"/>
</svg>
