<svg width="17" height="17" viewBox="0 0 17 17" fill="none" xmlns="http://www.w3.org/2000/svg">
<path d="M15.381 5.6184C15.8127 5.6184 16.1905 5.7935 16.5143 6.14371C16.8381 6.49391 17 6.90248 17 7.36942V9.12043C17 9.22257 16.9897 9.33201 16.9692 9.44875C16.9487 9.56548 16.9185 9.67492 16.8786 9.77706L14.45 15.9494C14.3286 16.2412 14.1262 16.4893 13.8429 16.6936C13.5595 16.8979 13.2627 17 12.9524 17H6.47619C6.03095 17 5.64994 16.8287 5.33314 16.4861C5.01635 16.1435 4.85768 15.7311 4.85714 15.249V6.34069C4.85714 6.10723 4.90113 5.88485 4.9891 5.67356C5.07706 5.46227 5.19498 5.27608 5.34286 5.11498L9.73452 0.387244C9.9369 0.182959 10.1765 0.0589284 10.4534 0.015153C10.7302 -0.0286224 10.9966 0.0224489 11.2524 0.168367C11.5082 0.314285 11.6938 0.51857 11.8093 0.781222C11.9248 1.04387 11.9483 1.31382 11.8798 1.59107L10.969 5.6184H15.381ZM1.61905 17C1.17381 17 0.792794 16.8287 0.476 16.4861C0.159206 16.1435 0.000539683 15.7311 0 15.249V7.36942C0 6.88789 0.158667 6.47582 0.476 6.1332C0.793333 5.79058 1.17435 5.61899 1.61905 5.6184C2.06375 5.61782 2.44503 5.78942 2.7629 6.1332C3.08078 6.47698 3.23917 6.88905 3.2381 7.36942V15.249C3.2381 15.7305 3.0797 16.1429 2.7629 16.4861C2.44611 16.8293 2.06483 17.0006 1.61905 17Z" fill="#1A1A1A"/>
</svg>
