<svg width="15" height="16" viewBox="0 0 15 16" fill="none" xmlns="http://www.w3.org/2000/svg">
<path d="M14.9125 11.4156C14.8726 10.9319 14.49 10.5364 14.0101 10.4558L10.4541 9.502C9.95389 9.36599 9.42034 9.60174 9.18675 10.066L8.87109 10.7032C7.62622 10.1824 6.79357 9.09322 6.79357 9.09322C6.79357 9.09322 5.75802 8.18417 5.3145 6.92057L5.9699 6.64471C6.20223 6.54505 6.39296 6.36812 6.50977 6.14392C6.62658 5.91972 6.66228 5.66202 6.61083 5.41451L5.87769 1.80655C5.82681 1.32255 5.45557 0.916395 4.97527 0.846781C4.08041 0.709575 2.67728 0.699253 1.90137 1.68408C1.90137 1.68408 -1.43723 6.1315 3.91358 11.8224C9.26439 17.5133 13.9088 14.4547 13.9088 14.4547C14.9399 13.7299 15.005 12.3285 14.9337 11.4381L14.9125 11.4156Z" fill="white"/>
</svg>
